<?xml version='1.0' encoding='UTF-8'?>
<svg xmlns="http://www.w3.org/2000/svg" font-family="ConsolasFallback,Consolas,monospace" width="985px" height="570px" font-size="16px">
<style>
@font-face {
src: local('Consolas'), local('Consolas Bold');
font-family: 'ConsolasFallback';
font-display: swap;
-webkit-size-adjust: 109%;
size-adjust: 109%;
}
.key {fill: #953800;}
.value {fill: #0a3069;}
.addColor {fill: #1a7f37;}
.delColor {fill: #cf222e;}
.cc {fill: #c2cfde;}
.logo {fill: #3d3d3d;}
text, tspan {white-space: pre;}
</style>
<rect width="985px" height="570px" fill="#f6f8fa" rx="15"/>
<g transform="translate(51.5,180) scale(1.423)">
<path class="logo" d="M552.21,514.71a37.45,37.45,0,0,1,13.23-12.33,43.05,43.05,0,0,1,21.43-5.31,46,46,0,0,1,20.07,4.25,43,43,0,0,1,15.46,12.75l20.65-20.66a65.34,65.34,0,0,0-23.84-17.57,77.92,77.92,0,0,0-32-6.37,78.84,78.84,0,0,0-18.68,2.17,70.33,70.33,0,0,0-9.9,3.14,71.06,71.06,0,0,0-23.27,14.86A67.29,67.29,0,0,0,526.55,500l-.14.22L524,504l-27.42,42.86-49.68-77.35H424.6V610h31.06V532l30.48,47.74h20.69Z" transform="translate(-424.6 -469.47)"/>
<path class="logo" d="M521.87,571.75a68.67,68.67,0,0,0,13,17.92,70.26,70.26,0,0,0,22.69,15,72.35,72.35,0,0,0,27.9,5.39q20.28,0,35.83-8.49t24.33-25.21q8.77-16.68,8.79-41.22v-4.43h-49.1L579.6,556.37l42.32.62a36.82,36.82,0,0,1-2.91,7.77,31,31,0,0,1-12.93,13.14q-8.42,4.53-20.37,4.54A39.76,39.76,0,0,1,564.86,577,38.08,38.08,0,0,1,550.56,562a46.34,46.34,0,0,1-5.22-22.39c0-.5,0-1,0-1.49Z" transform="translate(-424.6 -469.47)"/>
</g>
<text x="390" y="30" fill="#24292f">
<tspan x="390" y="30">makhmud@galy</tspan> -———————————————————————————————————————————-—-
<tspan x="390" y="50" class="cc">. </tspan><tspan class="key">OS</tspan>:<tspan class="cc"> .............................................. </tspan><tspan class="value">Pop!_OS</tspan>
<tspan x="390" y="70" class="cc">. </tspan><tspan class="key">Shell</tspan>:<tspan class="cc"> ......................................... </tspan><tspan class="value">zsh, bash</tspan>
<tspan x="390" y="90" class="cc">. </tspan><tspan class="key">Editor</tspan>:<tspan class="cc"> .............. </tspan><tspan class="value">VS Code + Dark 2026, NVIM, Intellij</tspan>
<tspan x="390" y="110" class="cc">. </tspan><tspan class="key">Uptime</tspan>:<tspan class="cc" id="age_data_dots"> ...................... </tspan><tspan class="value" id="age_data">30 years, 5 months, 29 days</tspan>
<tspan x="390" y="130" class="cc">. </tspan><tspan class="key">Host</tspan>:<tspan class="cc"> .................................... </tspan><tspan class="value">Agoda Co., Ltd.</tspan>
<tspan x="390" y="150" class="cc">. </tspan><tspan class="key">Kernel</tspan>:<tspan class="cc"> ......................... </tspan><tspan class="value">Senior Ctrl+Z Specialist </tspan>
<tspan x="390" y="170" class="cc">. </tspan>
<tspan x="390" y="190" class="cc">. </tspan><tspan class="key">Languages</tspan>.<tspan class="key">Programming</tspan>:<tspan class="cc"> ........ </tspan><tspan class="value">JS/TS, Go, Scala 2, Kotlin</tspan>
<tspan x="390" y="210" class="cc">. </tspan><tspan class="key">Languages</tspan>.<tspan class="key">Real</tspan>:<tspan class="cc"> ............ </tspan><tspan class="value">Kazakh, English, Russian, Cat</tspan>
<tspan x="390" y="230" class="cc">. </tspan><tspan class="key">Frameworks</tspan>:<tspan class="cc"> ........................... </tspan><tspan class="value">Django, React, Gin</tspan>
<tspan x="390" y="250" class="cc">. </tspan><tspan class="key">Currently Learning</tspan>:<tspan class="cc"> ........... </tspan><tspan class="value">Rust + Distributed Compute</tspan>
<tspan x="390" y="270" class="cc">. </tspan>
<tspan x="390" y="290" class="cc">. </tspan><tspan class="key">Hobbies</tspan>:<tspan class="cc"> .......... </tspan><tspan class="value">Spending 8 hrs to automate 10 min task</tspan>
<tspan x="390" y="310" class="cc">. </tspan><tspan class="key">Fuel</tspan>:<tspan class="cc"> ........ </tspan><tspan class="value">if (coffee == empty) { system.crash(); } 💻</tspan>
<tspan x="390" y="350">- Contact</tspan> -——————————————————————————————————————————————-—-
<tspan x="390" y="370" class="cc">. </tspan><tspan class="key">Email</tspan>.<tspan class="key">Personal</tspan>:<tspan class="cc"> ................... </tspan><tspan class="value">makhmudgaly2@gmail.com</tspan>
<tspan x="390" y="390" class="cc">. </tspan><tspan class="key">Website</tspan>.<tspan class="key">Personal</tspan>:<tspan class="cc"> ........................ </tspan><tspan class="value">makhmudgaly.com</tspan>
<tspan x="390" y="430" class="cc">. </tspan><tspan class="key">LinkedIn</tspan>:<tspan class="cc"> .................................... </tspan><tspan class="value">makhmudgaly</tspan>
<tspan x="390" y="450" class="cc">. </tspan><tspan class="key">Discord</tspan>:<tspan class="cc"> ..................................... </tspan><tspan class="value">makhmudgaly</tspan>
<tspan x="390" y="490">- GitHub Stats</tspan> -—————————————————————————————————————————-—-
<tspan x="390" y="510" class="cc">. </tspan><tspan class="key">Repos</tspan>:<tspan class="cc" id="repo_data_dots"> .... </tspan><tspan class="value" id="repo_data">95</tspan> {<tspan class="key">Contributed</tspan>: <tspan class="value" id="contrib_data">133</tspan>} | <tspan class="key">Stars</tspan>:<tspan class="cc" id="star_data_dots"> ........... </tspan><tspan class="value" id="star_data">342</tspan>
<tspan x="390" y="530" class="cc">. </tspan><tspan class="key">Commmits</tspan>:<tspan class="cc" id="commit_data_dots"> ................. </tspan><tspan class="value" id="commit_data">2,116</tspan> | <tspan class="key">Followers</tspan>:<tspan class="cc" id="follower_data_dots"> ....... </tspan><tspan class="value" id="follower_data">196</tspan>
<tspan x="390" y="550" class="cc">. </tspan><tspan class="key">Lines of Code on GitHub</tspan>:<tspan class="cc" id="loc_data_dots">. </tspan><tspan class="value" id="loc_data">446,276</tspan> ( <tspan class="addColor" id="loc_add">523,178</tspan><tspan class="addColor">++</tspan>, <tspan id="loc_del_dots"> </tspan><tspan class="delColor" id="loc_del">76,902</tspan><tspan class="delColor">--</tspan> )
</text>
</svg>